<?xml version="1.0" encoding="UTF-8"?>
<svg version="1.1" viewBox="0 0 200 200" xmlns="http://www.w3.org/2000/svg" xmlns:cc="http://creativecommons.org/ns#" xmlns:dc="http://purl.org/dc/elements/1.1/" xmlns:rdf="http://www.w3.org/1999/02/22-rdf-syntax-ns#">
<g transform="translate(0 -852.36)">
<g transform="translate(-1186.3)">
<path d="m1230.4 943.73c-6.0585 13.585-8.0349 33.445-4.9197 47.752 9.6152 7.7602 21.866 12.574 33.076 13.29 2.5673 4.015 8.6462 8.0319 13.217 8.8762 4.9963 0.9229 9.1885 1.2731 13.46 1.1641 4.2715 0.109 8.4636-0.2412 13.46-1.1641 4.571-0.8443 10.65-4.8612 13.217-8.8762 11.21-0.7155 23.208-4.9749 34.764-13.29 1.7297-18.429 0.2095-33.785-6.6069-47.728-6.1-12.478-15.708-21.979-26.047-30.485-8.3328-4.8149-17.883-7.6879-28.035-7.6879-0.5043-0.0143-0.9962 0-1.5037 0-10.151 0-19.679 2.8743-28.011 7.6879-12.802 6.4528-20.3 17.52-26.071 30.46z" fill="#f9f6ee" stroke="#3c291c" stroke-width="6.9846"/>
<path d="m1231.6 932.17c14.787-9.6942 28.714-20.593 48.504-23.282l-9.5691 65.917-42.261 15.015c-1.7995-18.635-0.086-37.973 3.3259-57.65z" fill="#ab8b61"/>
<path d="m1340.1 932.17c-14.787-9.6942-28.714-20.593-48.504-23.282l9.5691 65.917 42.261 15.015c1.7995-18.635 0.086-37.973-3.326-57.65z" fill="#ab8b61"/>
<path d="m1234.4 922.88c6.2276-6.3497 23.348-16.255 19.066-2.1304-14.312 47.2-1.6962 76.824-19.449 81.264-16.58 4.1465-25.567-11.077-24.925-20.609 1.1207-16.642 12.642-45.609 25.309-58.525z" fill="#9a6e3b" stroke="#3c291c" stroke-width="6.9846"/>
<path d="m1338.2 922.88c-6.2276-6.3497-23.348-16.255-19.065-2.1304 14.312 47.2 1.6961 76.824 19.449 81.264 16.58 4.1465 25.567-11.077 24.925-20.609-1.1207-16.642-12.642-45.609-25.309-58.525z" fill="#9a6e3b" stroke="#3c291c" stroke-width="6.9846"/>
<path d="m1276.4 983.77c1.1352-4.2455 16.9-4.6528 18.52 0 1.3877 3.9848-5.0303 9.1265-9.2603 9.1382-3.8537 0.0101-10.401-4.8701-9.2601-9.1382z" fill="#3c291c"/>
<path transform="matrix(.78403 0 0 .78403 420.18 558.08)" d="m1082.3 522.36c0 3.5504-2.8782 6.4286-6.4286 6.4286s-6.4285-2.8782-6.4285-6.4286 2.8781-6.4286 6.4285-6.4286 6.4286 2.8782 6.4286 6.4286z" fill="#3c291c"/>
<path transform="matrix(.78403 0 0 .78403 464.12 558.08)" d="m1082.3 522.36c0 3.5504-2.8782 6.4286-6.4286 6.4286s-6.4285-2.8782-6.4285-6.4286 2.8781-6.4286 6.4285-6.4286 6.4286 2.8782 6.4286 6.4286z" fill="#3c291c"/>
</g>
</g>
<metadata>
<rdf:RDF>
<cc:Work>
<dc:format>image/svg+xml</dc:format>
<dc:type rdf:resource="http://purl.org/dc/dcmitype/StillImage"/>
<cc:license rdf:resource="http://creativecommons.org/licenses/publicdomain/"/>
<dc:publisher>
<cc:Agent rdf:about="http://openclipart.org/">
<dc:title>Openclipart</dc:title>
</cc:Agent>
</dc:publisher>
<dc:title>Dou Shou Qi Dog</dc:title>
<dc:date>2014-06-28T06:46:45</dc:date>
<dc:description>The dog from ocastudios' version of dou shou qi, a chinese traditional board game also called 'the jungle game'. You can check it out at http://www.ocastudios.com/bronze/classics.</dc:description>
<dc:source>https://openclipart.org/detail/194532/dou-shou-qi-dog-by-isacvale-194532</dc:source>
<dc:creator>
<cc:Agent>
<dc:title>isacvale</dc:title>
</cc:Agent>
</dc:creator>
<dc:subject>
<rdf:Bag>
<rdf:li>Dou Shou Qi</rdf:li>
<rdf:li>jungle</rdf:li>
<rdf:li>board</rdf:li>
<rdf:li>game</rdf:li>
<rdf:li>oca</rdf:li>
<rdf:li>ocastudios</rdf:li>
<rdf:li>classics</rdf:li>
<rdf:li>animal</rdf:li>
<rdf:li>head</rdf:li>
<rdf:li>dog</rdf:li>
</rdf:Bag>
</dc:subject>
</cc:Work>
<cc:License rdf:about="http://creativecommons.org/licenses/publicdomain/">
<cc:permits rdf:resource="http://creativecommons.org/ns#Reproduction"/>
<cc:permits rdf:resource="http://creativecommons.org/ns#Distribution"/>
<cc:permits rdf:resource="http://creativecommons.org/ns#DerivativeWorks"/>
</cc:License>
</rdf:RDF>
</metadata>
</svg>
