<?xml version="1.0" encoding="UTF-8" standalone="no"?>
<svg
   xmlns:dc="http://purl.org/dc/elements/1.1/"
   xmlns:cc="http://creativecommons.org/ns#"
   xmlns:rdf="http://www.w3.org/1999/02/22-rdf-syntax-ns#"
   xmlns:svg="http://www.w3.org/2000/svg"
   xmlns="http://www.w3.org/2000/svg"
   viewBox="0 0 6666.6665 6666.6665"
   height="6666.6665"
   width="6666.6665"
   xml:space="preserve"
   id="svg2"
   version="1.1"><metadata
     id="metadata8"><rdf:RDF><cc:Work
         rdf:about=""><dc:format>image/svg+xml</dc:format><dc:type
           rdf:resource="http://purl.org/dc/dcmitype/StillImage" /></cc:Work></rdf:RDF></metadata><defs
     id="defs6" /><g
     transform="matrix(1.3333333,0,0,-1.3333333,0,6666.6667)"
     id="g10"><g
       transform="scale(0.1)"
       id="g12"><g
         transform="scale(3.06748)"
         id="g14"><path
           id="path16"
           style="fill:#71cfcf;fill-opacity:1;fill-rule:nonzero;stroke:none"
           d="M 16300,0 H 0 V 16300 H 16300 V 0" /></g><g
         transform="scale(1.488)"
         id="g18"><path
           id="path20"
           style="fill:#44b7b9;fill-opacity:1;fill-rule:nonzero;stroke:none"
           d="m 16300,5678.36 c 0,-756.92 -3454.1,-1370.56 -7714.99,-1370.56 -4260.91,0 -7715.042,613.64 -7715.042,1370.56 0,756.92 3454.132,1370.56 7715.042,1370.56 4260.89,0 7714.99,-613.64 7714.99,-1370.56" /></g><g
         transform="scale(2.98064)"
         id="g22"><path
           id="path24"
           style="fill:#44b7b9;fill-opacity:1;fill-rule:nonzero;stroke:none"
           d="m 16300,2851.54 c 0,-377.87 -1724.4,-684.22 -3851.5,-684.22 -2127.1,0 -3851.52,306.35 -3851.52,684.22 0,377.87 1724.42,684.21 3851.52,684.21 2127.1,0 3851.5,-306.34 3851.5,-684.21" /></g><g
         transform="scale(2.98561)"
         id="g26"><path
           id="path28"
           style="fill:#ee2530;fill-opacity:1;fill-rule:nonzero;stroke:none"
           d="m 16300,3546.07 c 0,-469.38 -1736.2,-993.09 -3877.9,-993.09 -2141.7,0 -3877.89,542.8 -3877.89,1012.18 0,469.35 1736.19,687.53 3877.89,687.53 2141.7,0 3877.9,-237.27 3877.9,-706.62" /></g><g
         transform="scale(2.59271)"
         id="g30"><path
           id="path32"
           style="fill:#c3212b;fill-opacity:1;fill-rule:nonzero;stroke:none"
           d="m 14284,4182.89 c -560.8,0 -1042.7,-26.34 -1393.7,-76.25 -537.6,-76.41 -543.8,-177.35 -543.8,-181.63 0,-33.32 98.4,-142.55 547.5,-246.38 383.9,-88.75 890.6,-139.66 1390,-139.66 513.2,0 1004.6,44.39 1383.8,125.04 442.7,94.19 539.7,198.98 539.7,231.42 0,37.45 -112.4,126.7 -537.7,196.55 -356.9,58.63 -849.1,90.91 -1385.8,90.91 z m 0,-742.55 c -513.2,0 -1013.8,50.42 -1409.6,141.9 -181.8,42.04 -332.8,91.68 -436.8,143.6 -123.5,61.71 -183.6,126.85 -183.6,199.17 0,109.58 141.3,163.31 187.7,180.97 101.4,38.53 248.2,71.66 436.4,98.39 354.9,50.49 841.1,77.14 1405.9,77.14 541.3,0 1038.5,-32.67 1399.8,-92.06 185.4,-30.43 330.6,-67.08 431.9,-108.89 124,-51.26 184.3,-111.81 184.3,-185.13 0,-72.55 -59.6,-136.31 -182.1,-194.89 -103.4,-49.45 -248.8,-94.27 -432,-133.22 -384.9,-81.89 -882.8,-126.98 -1401.9,-126.98" /></g><g
         transform="scale(2.57648)"
         id="g34"><path
           id="path36"
           style="fill:#e72835;fill-opacity:1;fill-rule:nonzero;stroke:none"
           d="m 15795.3,4959.95 c 504.7,680.23 360.9,2694.1 330.2,3059.13 H 11660 c 0,0 -69.4,-1530.88 245.2,-2436.46 216.8,-624.38 488.6,-1118.85 842.6,-1450.97 363,-23.41 775.5,-48.67 992.3,-54.15 440.5,-11.17 1499.5,133.4 2055.2,882.45" /></g><g
         transform="scale(2.86595)"
         id="g38"><path
           id="path40"
           style="fill:#c3212b;fill-opacity:1;fill-rule:nonzero;stroke:none"
           d="m 15510.2,5396.46 c -207.4,-190.96 -433.2,-173.2 -433.2,-173.2 v -0.04 c 94.1,351.51 144.5,717.01 170.6,1037.46 v 0 c 105.1,19.99 498.3,-100.35 517.2,-301.4 18.8,-201.02 -47.2,-371.85 -254.6,-562.82 z m 527.9,1045.28 c -203.9,274.08 -706.3,319.61 -765.5,324.39 4.8,271.08 -5.8,443 -5.8,443 h -770.1 c 27.6,-328.17 156.9,-2138.63 -296.8,-2750.16 -499.6,-673.38 -1451.6,-802.7 -1847.6,-792.65 -194.9,4.96 -565.7,27.64 -892.1,48.71 143.4,-134.47 299.6,-245.15 477.4,-310.54 127.8,-46.97 1729.9,-67.52 1864.4,0.94 430.7,219.27 794.9,521.29 1094,1290.36 v -0.04 c 861.8,83.29 1102.4,459.47 1253.2,821.3 150.8,361.84 105.7,633.2 -111.1,924.69" /></g><g
         transform="scale(2.68429)"
         id="g42"><path
           id="path44"
           style="fill:#eea25b;fill-opacity:1;fill-rule:nonzero;stroke:none"
           d="m 16300,7709.47 c 0,-266.21 -1143.5,-482.06 -2554.2,-482.06 -1410.6,0 -2554.1,215.85 -2554.1,482.06 0,266.22 1143.5,482.03 2554.1,482.03 1410.7,0 2554.2,-215.81 2554.2,-482.03" /></g><g
         transform="scale(2.6198)"
         id="g46"><path
           id="path48"
           style="fill:#30241e;fill-opacity:1;fill-rule:nonzero;stroke:none"
           d="m 14084.2,8024.53 c -1241.2,0 -2274.5,-246.85 -2274.5,-325.82 0,0 286.6,-94.82 867.8,-159.94 275.2,91.42 728,195.74 1336.9,181.58 589.3,-13.66 1082.3,-88.9 1415.8,-163.6 592.5,60.04 869.8,132.19 869.8,132.19 0,119.47 -974.5,335.59 -2215.8,335.59" /></g><g
         transform="scale(2.48001)"
         id="g50"><path
           id="path52"
           style="fill:#70382c;fill-opacity:1;fill-rule:nonzero;stroke:none"
           d="m 13392.1,7963.73 c 371.4,-41.61 856.5,-71.77 1457.4,-61.37 603.1,10.48 1083.9,43.23 1450.5,80.36 -352.3,78.91 -873.1,158.39 -1495.6,172.83 -643.3,14.96 -1121.5,-95.25 -1412.3,-191.82" /></g><g
         transform="scale(2.97614)"
         id="g54"><path
           id="path56"
           style="fill:#c3212b;fill-opacity:1;fill-rule:nonzero;stroke:none"
           d="m 8637.24,3402.8 c 0,0 1.52,-1.27 4.61,-3.69 3.05,-2.42 7.62,-6.02 13.84,-10.52 12.23,-9.27 30.95,-22.11 55.51,-38.47 24.9,-15.93 55.64,-35.35 92.7,-56.38 9.28,-5.25 18.89,-10.72 28.83,-16.37 10.05,-5.41 20.46,-11.02 31.22,-16.8 21.3,-11.86 44.55,-23.22 68.88,-35.68 97.67,-49.09 219.04,-102.38 360.9,-155.1 141.83,-52.76 304.19,-104.9 483.45,-152.68 179.22,-47.95 375.32,-91.63 584.12,-129.27 208.7,-37.63 430.1,-69.68 660,-94.55 115.1,-11.35 232,-23.59 350.7,-32.05 29.6,-2.32 59.4,-4.67 89.2,-6.99 29.8,-2.05 59.8,-3.6 89.9,-5.41 30,-1.82 60.1,-3.66 90.2,-5.51 30.2,-1.82 60.4,-3.93 90.8,-4.97 60.6,-2.56 121.5,-5.11 182.6,-7.67 30.5,-1.57 61.1,-1.85 91.8,-2.65 30.6,-0.81 61.3,-1.58 92,-2.39 30.7,-0.8 61.5,-1.61 92.2,-2.41 30.8,-0.28 61.6,-0.54 92.4,-0.81 61.5,-0.44 123,-0.84 184.5,-1.28 61.9,0.47 123.9,0.94 185.8,1.45 l 46.4,0.33 c 15.5,0.1 31,0.17 46.3,0.71 30.7,0.8 61.3,1.61 92,2.42 30.6,0.8 61.2,1.61 91.8,2.42 15.3,0.33 30.6,0.7 45.8,1.07 15.3,0.47 30.6,1.25 45.9,1.85 61,2.55 121.9,5.11 182.6,7.66 15.2,0.54 30.3,1.45 45.4,2.42 15.1,0.94 30.2,1.88 45.3,2.79 30.2,1.88 60.3,3.73 90.3,5.58 15,0.87 30,1.74 45,2.62 l 22.4,1.31 22.4,1.68 c 29.8,2.35 59.6,4.67 89.2,6.99 29.7,2.31 59.3,4.63 88.7,6.95 l 22.1,1.72 22,2.15 c 14.7,1.44 29.3,2.92 43.9,4.36 29.2,2.83 58.3,5.68 87.3,8.51 29,2.85 58,5.24 86.7,8.83 57.4,6.69 114.3,13.34 170.8,19.89 56.2,7.66 112,15.26 167.1,22.75 27.6,3.46 54.9,8.2 82.1,12.33 27.2,4.27 54.2,8.5 81.1,12.7 13.5,2.12 26.9,4.2 40.2,6.29 13.3,2.38 26.6,4.73 39.8,7.09 26.5,4.7 52.8,9.34 78.9,13.94 52.3,8.67 103.5,19.46 154.1,29.4 12.6,2.52 25.2,5.04 37.8,7.53 12.5,2.48 25,4.9 37.4,7.76 24.8,5.48 49.4,10.92 73.8,16.3 24.3,5.41 48.6,10.41 72.5,16.09 23.8,5.81 47.5,11.56 70.9,17.24 23.4,5.78 46.7,11.19 69.6,17.1 22.9,6.08 45.5,12.13 67.9,18.08 179.3,47.78 341.7,99.83 483.6,152.41 8.9,3.23 17.7,6.45 26.4,9.64 8.7,3.4 17.3,6.76 25.8,10.08 17.1,6.69 33.9,13.24 50.4,19.69 16.5,6.25 32.4,13.34 48.2,19.83 15.7,6.55 31.2,13 46.3,19.28 15.1,6.52 29.7,13.21 44.1,19.59 14.4,6.49 28.6,12.5 42.2,18.99 13.6,6.45 26.9,12.77 39.9,18.92 6.5,3.09 12.9,6.11 19.3,9.1 6.3,3.02 12.4,6.22 18.5,9.28 24.4,12.29 47.7,23.72 69.1,35.44 10.7,5.75 21.2,11.29 31.2,16.67 10,5.61 19.6,11.05 28.9,16.26 37.2,20.9 68,40.16 92.9,55.95 24.7,16.23 43.5,28.96 55.8,38.13 6.2,4.47 10.8,8.03 13.9,10.42 3.1,2.39 4.6,3.66 4.6,3.66 0,0 -22.8,-22.48 -70,-59.1 -47.2,-36.39 -118.8,-86.59 -214.2,-142.84 -6,-3.53 -12,-7.22 -18.1,-10.72 -6.2,-3.49 -12.5,-7.05 -18.8,-10.61 -12.7,-7.16 -25.7,-14.45 -39,-21.95 -13.4,-7.49 -27.3,-14.54 -41.4,-22.07 -14.1,-7.43 -28.5,-15.19 -43.3,-22.82 -29.8,-14.68 -60.6,-30.57 -93.1,-45.76 -16.3,-7.53 -32.8,-15.22 -49.7,-23.02 -8.4,-3.93 -16.9,-7.86 -25.5,-11.82 -8.6,-3.77 -17.3,-7.6 -26.2,-11.43 -35.2,-15.15 -71.3,-31.45 -109.2,-46.23 -18.9,-7.59 -38.1,-15.29 -57.5,-23.12 -4.9,-1.95 -9.7,-3.9 -14.6,-5.88 -4.9,-1.85 -9.9,-3.7 -14.8,-5.54 -10,-3.73 -19.9,-7.46 -30,-11.26 -20.1,-7.49 -40.5,-15.09 -61.1,-22.81 -10.3,-3.93 -20.8,-7.4 -31.3,-11.06 -10.5,-3.63 -21.2,-7.26 -31.8,-10.92 -21.3,-7.32 -42.8,-14.75 -64.6,-22.24 -21.9,-7.36 -44.1,-14.15 -66.5,-21.37 -22.4,-7.09 -45,-14.25 -67.9,-21.51 -23,-6.99 -46.3,-13.47 -69.7,-20.36 -23.5,-6.79 -47.3,-13.64 -71.1,-20.56 -24,-6.79 -48.3,-12.9 -72.8,-19.46 -24.5,-6.45 -49.1,-12.97 -74,-19.48 -12.4,-3.4 -25,-6.32 -37.6,-9.31 -12.6,-2.99 -25.3,-5.98 -38,-9.01 -50.8,-11.93 -102.3,-24.76 -154.9,-35.48 -105,-23.25 -213.4,-43.38 -324.4,-63.2 -55.5,-9.28 -111.7,-18.52 -168.5,-27.59 -56.9,-8 -114.3,-16.06 -172.2,-24.19 -29,-4.37 -58.2,-7.46 -87.4,-11.06 -29.3,-3.42 -58.7,-6.88 -88.1,-10.35 -14.8,-1.71 -29.6,-3.42 -44.4,-5.14 l -22.2,-2.52 -22.2,-2.15 c -29.8,-2.82 -59.6,-5.67 -89.6,-8.53 -29.9,-2.86 -59.9,-5.71 -90,-8.6 l -22.6,-2.09 -22.7,-1.71 c -15.1,-1.14 -30.2,-2.29 -45.4,-3.43 -30.3,-2.18 -60.7,-4.37 -91.1,-6.55 -15.3,-1.11 -30.5,-2.18 -45.8,-3.29 -15.2,-1.14 -30.5,-2.22 -45.8,-2.93 -61.2,-3.19 -122.7,-6.41 -184.3,-9.61 -15.5,-0.77 -30.9,-1.71 -46.3,-2.35 -15.5,-0.47 -31,-0.97 -46.5,-1.48 -31,-0.9 -62,-1.81 -93.1,-2.75 -31,-0.91 -62.1,-1.82 -93.2,-2.76 -15.6,-0.57 -31.1,-0.7 -46.5,-0.84 l -46.4,-0.5 c -61.9,-0.67 -123.9,-1.34 -185.8,-1.98 -62.5,0.64 -124.9,1.27 -187.2,1.88 -31.1,0.4 -62.2,0.77 -93.2,1.14 -31.1,0.91 -62.1,1.85 -93.1,2.76 -31,0.94 -61.9,1.84 -92.9,2.75 -30.9,1.14 -61.8,1.75 -92.6,3.63 -61.6,3.23 -123.1,6.42 -184.3,9.64 -30.6,1.31 -61.1,3.8 -91.6,5.95 -30.5,2.22 -60.8,4.44 -91.1,6.62 -30.4,2.35 -60.6,4.4 -90.7,6.99 -30.1,2.86 -60.1,5.74 -90.1,8.6 -29.9,2.86 -59.8,5.71 -89.5,8.54 -14.8,1.51 -29.7,2.65 -44.5,4.43 -14.8,1.72 -29.6,3.43 -44.3,5.14 -29.5,3.5 -58.9,6.96 -88.2,10.42 -14.6,1.75 -29.2,3.49 -43.8,5.24 -14.5,1.75 -29.1,3.39 -43.5,5.58 -58,8.13 -115.4,16.23 -172.3,24.22 -56.8,8.61 -113,18.32 -168.5,27.42 -13.9,2.35 -27.8,4.47 -41.6,7.03 -13.7,2.58 -27.5,5.17 -41.2,7.76 -27.4,5.14 -54.6,10.28 -81.7,15.35 -54.2,9.65 -107.4,21.64 -159.9,32.8 -13.1,2.82 -26.2,5.61 -39.3,8.4 -13,2.82 -26,5.51 -38.9,8.7 -25.8,6.15 -51.4,12.23 -76.8,18.28 -25.4,6.08 -50.6,11.89 -75.6,18.11 -24.9,6.58 -49.5,13.1 -74,19.59 -24.5,6.48 -48.73,12.93 -72.76,19.32 -23.92,6.95 -47.61,13.84 -71.1,20.66 -23.45,6.82 -46.7,13.58 -69.75,20.26 -22.85,7.26 -45.5,14.45 -67.94,21.57 -179.26,57.06 -340.98,118.68 -481.36,180.64 -140.42,61.96 -259.67,123.99 -354.76,180.77 -95.29,56.52 -166.72,107.06 -213.8,143.65 -47.01,36.82 -69.69,59.5 -69.69,59.5" /></g><g
         transform="scale(1.50247)"
         id="g58"><path
           id="path60"
           style="fill:#ee2530;fill-opacity:1;fill-rule:nonzero;stroke:none"
           d="m 888.21,7064.02 c 0,-932.66 3450.05,-1973.41 7705.89,-1973.41 4255.9,0 7705.9,1078.69 7705.9,2011.35 0,932.73 -3450,1366.21 -7705.9,1366.21 -4255.84,0 -7705.89,-471.48 -7705.89,-1404.15" /></g><g
         transform="scale(1.11834)"
         id="g62"><path
           id="path64"
           style="fill:#c3212b;fill-opacity:1;fill-rule:nonzero;stroke:none"
           d="M 8381.08,9510.28 C 7394.97,9348.25 7134.41,9141.34 7134.41,9054.6 c 0,-75.2 224.81,-318.24 1251.33,-536.6 879,-186.88 2018.26,-289.89 3208.16,-289.89 1157.8,0 2332.4,118.03 3222.5,323.87 1041.2,240.63 1269.2,493.95 1269.2,571.21 0,9.83 -14.4,243.84 -1260.6,421.07 -813.8,115.61 -1931,176.78 -3231.1,176.78 -1244.4,0 -2385.5,-74.85 -3212.82,-210.76 z m -37.3,-1216.45 c -424.87,90.4 -761.85,194.31 -1001.57,308.94 C 7058.1,8738.6 6920,8886.4 6920,9054.6 c 0,169.9 139.78,310.28 427.34,429.12 234.68,96.93 571.49,181.88 1001.09,252.52 837.8,137.61 1990.37,213.44 3245.47,213.44 1309.4,0 2436.5,-61.88 3259.4,-178.84 436.3,-62.05 776.6,-138.78 1011.6,-228.19 107.6,-40.96 435.1,-165.52 435.1,-419.46 0,-167.75 -139.2,-318.78 -425.6,-461.76 -241,-120.36 -591.2,-235.53 -1012.5,-332.91 -917.7,-212.19 -2078.4,-329.06 -3268,-329.06 -1203.5,0 -2357.78,104.53 -3250.12,294.37" /></g><g
         transform="scale(1.26917)"
         id="g66"><path
           id="path68"
           style="fill:#e72835;fill-opacity:1;fill-rule:nonzero;stroke:none"
           d="m 7330.53,10089.7 c -1024.49,1380.9 -732.48,5469.2 -670.15,6210.3 h 9065.02 c 0,0 141,-3107.9 -497.6,-4946.2 -440.3,-1267.6 -991.9,-2271.3 -1710.7,-2945.52 -736.8,-47.59 -1574.3,-98.8 -2014.4,-110 -894.1,-22.69 -3043.99,270.81 -4172.17,1791.42" /></g><g
         transform="scale(1.26917)"
         id="g70"><path
           id="path72"
           style="fill:#e72835;fill-opacity:1;fill-rule:nonzero;stroke:none"
           d="m 3804.37,13477.7 c 42.57,453.9 930.49,725.6 1167.7,680.6 v 0 c 59.05,-723.7 172.85,-1549 385.47,-2342.8 l -0.03,0.1 c 0,0 -510.11,-40.1 -978.41,391.1 -468.29,431.2 -617.3,817.1 -574.73,1271 z m -868.1,-998.6 c 340.57,-817.1 883.75,-1666.6 2829.96,-1854.6 v 0 c 675.22,-1736.69 1497.83,-2418.64 2470.36,-2913.76 303.67,-154.68 3921.51,-108.27 4210.11,-2.13 401.5,147.65 754.1,397.5 1077.9,701.17 -736.9,-47.51 -1574.4,-98.73 -2014.5,-109.92 -894.1,-22.69 -3043.99,269.23 -4172.19,1789.84 -1024.49,1380.9 -717.73,5469.2 -655.4,6210.3 H 4928.7 c 0,0 -23.86,-388.3 -13.07,-1000.3 -133.71,-10.8 -1268.18,-113.7 -1728.56,-732.7 -489.59,-658.1 -591.39,-1270.9 -250.8,-2087.9" /></g><g
         transform="scale(1.26917)"
         id="g74"><path
           id="path76"
           style="fill:#c3212b;fill-opacity:1;fill-rule:nonzero;stroke:none"
           d="m 15744.8,15299.7 c 10.8,612 -13,1000.3 -13,1000.3 H 13978 c 62.3,-741.1 369.1,-4829.4 -655.5,-6210.3 -1128.1,-1520.61 -3278,-1812.53 -4172.08,-1789.84 -440.13,11.19 -1277.63,62.41 -2014.49,109.92 323.71,-303.67 676.36,-553.52 1077.89,-701.17 288.54,-106.14 3906.38,-152.55 4210.08,2.13 972.5,495.12 1824.7,1177.07 2499.8,2913.76 h 7.4 c 831.2,1255.2 856.4,4002.7 813.7,4675.2" /></g><g
         transform="scale(1.35059)"
         id="g78"><path
           id="path80"
           style="fill:#eea25b;fill-opacity:1;fill-rule:nonzero;stroke:none"
           d="m 4624.6,15342 c 0,-529.1 2272.76,-958 5076.38,-958 2803.62,0 5076.32,428.9 5076.32,958 0,529.1 -2272.7,958 -5076.32,958 -2803.62,0 -5076.38,-428.9 -5076.38,-958" /></g><g
         transform="scale(1.29135)"
         id="g82"><path
           id="path84"
           style="fill:#30241e;fill-opacity:1;fill-rule:nonzero;stroke:none"
           d="m 10146.1,16300 c 2518.1,0 4614.4,-500.8 4614.4,-661 0,0 -581.5,-192.3 -1760.5,-324.4 -558.4,185.4 -1476.9,397 -2712.4,368.4 -1195.48,-27.8 -2195.68,-180.4 -2872.17,-332 -1201.96,121.8 -1764.61,268.2 -1764.61,268.2 0,242.3 1977.06,680.8 4495.28,680.8" /></g><g
         transform="scale(1.24474)"
         id="g86"><path
           id="path88"
           style="fill:#70382c;fill-opacity:1;fill-rule:nonzero;stroke:none"
           d="m 13486.8,15888.1 c -739.9,-83 -1706.6,-143.1 -2903.8,-122.3 -1201.57,20.8 -2159.45,86.1 -2889.88,160.1 701.83,157.3 1739.48,315.5 2979.78,344.4 1281.7,29.7 2234.6,-189.9 2813.9,-382.2" /></g><g
         transform="scale(1.49045)"
         id="g90"><path
           id="path92"
           style="fill:#c3212b;fill-opacity:1;fill-rule:nonzero;stroke:none"
           d="m 16300,6812.42 c 0,0 -3,-2.62 -9.2,-7.38 -6.1,-4.83 -15.2,-12.01 -27.6,-21.06 -24.5,-18.45 -61.8,-44.09 -110.9,-76.83 -49.7,-31.73 -111.1,-70.52 -185.1,-112.51 -18.5,-10.54 -37.7,-21.41 -57.5,-32.75 -20.1,-10.8 -40.9,-21.94 -62.4,-33.48 -42.5,-23.68 -88.9,-46.42 -137.5,-71.32 -195.1,-98.02 -437.4,-204.43 -720.7,-309.63 -283.2,-105.34 -607.4,-209.47 -965.3,-304.94 -357.9,-95.75 -749.5,-182.97 -1166.3,-258.11 -416.9,-75.15 -858.9,-139.16 -1318,-188.74 -229.7,-22.74 -463.1,-47.17 -700.2,-64 -59.2,-4.7 -118.6,-9.33 -178.2,-14.03 -59.6,-4.09 -119.4,-7.11 -179.4,-10.73 -59.9,-3.69 -120,-7.32 -180.3,-11.01 -60.2,-3.62 -120.5,-7.91 -181.1,-9.93 -121.13,-5.1 -242.7,-10.26 -364.68,-15.36 -60.92,-3.09 -122.11,-3.69 -183.3,-5.3 -61.19,-1.55 -122.45,-3.15 -183.77,-4.76 -61.32,-1.62 -122.71,-3.22 -184.1,-4.84 -61.46,-0.53 -122.99,-1.07 -184.51,-1.61 -122.72,-0.8 -245.5,-1.67 -368.35,-2.54 -123.72,1 -247.44,1.94 -371.09,2.88 l -92.66,0.67 c -30.86,0.2 -61.79,0.4 -92.32,1.41 -61.32,1.61 -122.58,3.22 -183.7,4.83 -61.19,1.61 -122.31,3.22 -183.37,4.83 -30.53,0.74 -61.05,1.48 -91.51,2.22 -30.53,0.87 -61.06,2.41 -91.52,3.62 -121.98,5.16 -243.55,10.26 -364.72,15.3 -30.26,1.07 -60.45,2.95 -90.64,4.89 -30.2,1.82 -60.32,3.69 -90.45,5.57 -60.25,3.69 -120.36,7.38 -180.28,11.07 -29.99,1.75 -59.91,3.49 -89.84,5.24 l -44.84,2.61 -44.7,3.42 c -59.56,4.63 -118.95,9.33 -178.17,13.96 -59.22,4.63 -118.26,9.26 -177.1,13.82 l -44.1,3.49 -43.94,4.3 c -29.27,2.88 -58.49,5.76 -87.65,8.65 -58.34,5.7 -116.47,11.34 -174.38,16.97 -57.9,5.71 -115.7,10.47 -172.95,17.72 -114.68,13.35 -228.39,26.57 -341.02,39.72 -112.38,15.29 -223.68,30.39 -333.79,45.42 -55.17,6.84 -109.62,16.3 -163.95,24.55 -54.3,8.53 -108.29,16.98 -161.96,25.37 -26.83,4.22 -53.58,8.38 -80.25,12.61 -26.58,4.7 -53.06,9.46 -79.48,14.16 -52.82,9.32 -105.32,18.58 -157.46,27.77 -104.51,17.38 -206.74,38.85 -307.74,58.78 -25.24,4.96 -50.39,10 -75.44,14.96 -25.05,4.96 -50.03,9.8 -74.72,15.56 -49.49,10.94 -98.58,21.74 -147.28,32.48 -48.66,10.87 -97.12,20.8 -144.81,32.14 -47.64,11.6 -94.85,23.08 -141.62,34.48 -46.75,11.48 -93.23,22.35 -138.96,34.15 -45.66,12.15 -90.87,24.16 -135.62,36.1 -357.96,95.41 -682.25,199.34 -965.6,304.27 -17.74,6.51 -35.34,12.88 -52.81,19.26 -17.31,6.77 -34.48,13.48 -51.51,20.19 -34.07,13.28 -67.56,26.37 -100.46,39.25 -33.08,12.48 -64.78,26.64 -96.3,39.65 -31.46,13.09 -62.33,25.9 -92.58,38.51 -30.08,13.02 -59.32,26.3 -88.08,39.05 -28.66,12.95 -57,25.03 -84.18,37.91 -27.2,12.95 -53.77,25.5 -79.69,37.84 -12.98,6.11 -25.79,12.14 -38.46,18.12 -12.64,6.04 -24.89,12.47 -37.11,18.52 -48.71,24.62 -95.13,47.36 -137.8,70.85 -21.5,11.4 -42.34,22.54 -62.47,33.21 -19.89,11.27 -39.11,22.07 -57.63,32.54 -74.19,41.66 -135.78,80.11 -185.58,111.64 -49.23,32.41 -86.77,57.84 -111.31,76.15 -12.42,8.92 -21.59,16.11 -27.76,20.87 -6.19,4.69 -9.219,7.31 -9.219,7.31 0,0 45.589,-44.95 139.759,-118.02 94.28,-72.66 237.31,-172.96 427.83,-285.28 11.89,-6.98 23.83,-14.42 36.15,-21.4 12.34,-6.98 24.83,-14.02 37.49,-21.2 25.34,-14.23 51.32,-28.85 77.92,-43.81 26.63,-14.9 54.39,-28.99 82.51,-44.09 28.2,-14.82 56.92,-30.26 86.46,-45.49 59.52,-29.31 121.08,-61.05 185.98,-91.38 32.49,-15.09 65.57,-30.39 99.21,-46.02 16.84,-7.79 33.81,-15.7 50.94,-23.62 17.26,-7.51 34.66,-15.1 52.21,-22.75 70.3,-30.32 142.52,-62.86 218.2,-92.31 37.71,-15.17 75.97,-30.6 114.76,-46.16 9.69,-3.9 19.43,-7.86 29.19,-11.75 9.84,-3.69 19.71,-7.45 29.61,-11.13 19.8,-7.45 39.75,-14.9 59.82,-22.41 40.18,-15.03 80.87,-30.19 122.07,-45.56 20.55,-7.92 41.5,-14.83 62.5,-22.07 21.01,-7.25 42.14,-14.56 63.41,-21.88 42.53,-14.62 85.55,-29.45 129.07,-44.42 43.59,-14.62 87.99,-28.17 132.69,-42.6 44.77,-14.15 90.01,-28.51 135.71,-42.94 45.81,-14.02 92.35,-26.97 139.2,-40.65 46.9,-13.56 94.23,-27.25 141.98,-41.07 47.83,-13.55 96.39,-25.76 145.2,-38.91 48.88,-12.89 98.17,-25.83 147.87,-38.92 24.82,-6.71 49.91,-12.54 75.07,-18.51 25.18,-5.98 50.44,-11.95 75.8,-17.98 101.5,-23.89 204.36,-49.52 309.41,-70.92 209.54,-46.43 426.07,-86.62 647.62,-126.21 110.94,-18.45 223.14,-36.97 336.51,-55.08 113.6,-15.97 228.3,-32.07 343.95,-48.31 57.8,-8.65 116.05,-14.89 174.45,-22 58.44,-6.85 117.1,-13.76 175.98,-20.67 29.44,-3.42 58.94,-6.84 88.49,-10.27 l 44.36,-5.09 44.49,-4.23 c 59.4,-5.7 118.98,-11.41 178.75,-17.11 59.77,-5.7 119.72,-11.4 179.84,-17.11 l 45.13,-4.23 45.25,-3.42 c 30.12,-2.28 60.38,-4.49 90.64,-6.77 60.52,-4.37 121.17,-8.73 182.03,-13.16 30.39,-2.14 60.78,-4.36 91.31,-6.57 30.46,-2.21 60.99,-4.43 91.52,-5.77 122.24,-6.44 244.96,-12.82 368.07,-19.26 30.8,-1.54 61.53,-3.42 92.39,-4.63 30.93,-1 61.86,-1.94 92.79,-2.95 61.86,-1.81 123.86,-3.69 185.85,-5.5 62,-1.88 124.12,-3.69 186.25,-5.5 31.13,-1.14 62,-1.48 92.86,-1.75 l 92.66,-1 c 123.58,-1.34 247.3,-2.62 371.03,-3.96 124.66,1.28 249.25,2.55 373.77,3.83 62.06,0.73 124.13,1.47 186.12,2.21 62,1.88 123.92,3.69 185.78,5.5 61.93,1.88 123.73,3.69 185.45,5.57 61.79,2.28 123.45,3.42 184.98,7.18 123.12,6.44 245.85,12.88 368.05,19.25 61.1,2.69 122.1,7.59 182.9,11.88 60.8,4.43 121.5,8.85 182,13.28 60.5,4.63 120.9,8.79 181,13.89 60.2,5.78 120.1,11.48 179.9,17.18 59.8,5.7 119.3,11.41 178.7,17.11 29.7,2.95 59.4,5.3 88.9,8.85 29.5,3.43 59.1,6.85 88.5,10.27 58.9,6.91 117.6,13.89 176,20.8 29.2,3.49 58.3,6.98 87.4,10.47 29.1,3.42 58.2,6.77 87,11.06 115.7,16.31 230.4,32.41 344,48.38 113.5,17.18 225.6,36.57 336.6,54.81 27.7,4.7 55.4,8.93 82.9,14.03 27.5,5.17 54.9,10.33 82.3,15.43 54.7,10.33 109,20.53 163.1,30.73 108.2,19.19 214.5,43.14 319.4,65.42 26.2,5.63 52.3,11.27 78.4,16.84 26,5.56 52,10.93 77.7,17.31 51.5,12.27 102.6,24.42 153.3,36.49 50.8,12.22 101.1,23.82 151,36.24 49.6,13.08 99,26.16 147.8,39.04 48.8,13.02 97.3,25.9 145.3,38.65 47.7,13.82 95,27.58 141.9,41.19 46.9,13.63 93.3,27.11 139.3,40.46 45.6,14.49 90.9,28.92 135.7,43.14 357.9,113.93 680.8,236.91 961.2,360.7 280.3,123.72 518.5,247.51 708.3,360.96 190.3,112.79 333,213.7 426.9,286.83 93.9,73.53 139.2,118.82 139.2,118.82" /></g><g
         transform="scale(2.48923)"
         id="g94"><path
           id="path96"
           style="fill:#3da9a4;fill-opacity:1;fill-rule:nonzero;stroke:none"
           d="m 12887.4,13978.7 c 0,1282 -971.3,2321.3 -2170.2,2321.3 H 6816.01 c -1198.93,0 -2170.83,-1039.3 -2170.83,-2321.3 v -235.5 h 8242.22 v 235.5" /></g><g
         transform="scale(2.09877)"
         id="g98"><path
           id="path100"
           style="fill:#3da9a4;fill-opacity:1;fill-rule:nonzero;stroke:none"
           d="m 5509.36,16300 v -39.9 c 0,-1520.5 1152.72,-2753.2 2574.7,-2753.2 h 1377.33 l -927.88,-2051.2 2270.99,2051.2 H 12711 c 1422,0 2574,1232.7 2574,2753.2 v 39.9 H 5509.36" /></g><g
         transform="scale(2.72347)"
         id="g102"><path
           id="path104"
           style="fill:#3da9a4;fill-opacity:1;fill-rule:nonzero;stroke:none"
           d="m 493.191,15193.1 c 0,611.3 463.172,1106.9 1034.849,1106.9 h 1860.22 c 571.68,0 1035.1,-495.6 1035.1,-1106.9 v -112.3 H 493.191 v 112.3" /></g><g
         transform="scale(2.51977)"
         id="g106"><path
           id="path108"
           style="fill:#3da9a4;fill-opacity:1;fill-rule:nonzero;stroke:none"
           d="m 4780.95,16300 v -17.3 c 0,-660.8 -500.88,-1196.4 -1118.78,-1196.4 h -598.53 l 403.21,-891.4 -986.81,891.4 h -828.47 c -617.89,0 -1118.509,535.6 -1118.509,1196.4 v 17.3 H 4780.95" /></g><g
         transform="scale(2.15112)"
         id="g110"><path
           id="path112"
           style="fill:#eea25b;fill-opacity:1;fill-rule:nonzero;stroke:none"
           d="m 8507.44,15929.4 c 0,-204.7 -165.96,-370.7 -370.64,-370.7 -204.73,0 -370.65,166 -370.65,370.7 0,204.6 165.92,370.6 370.65,370.6 204.68,0 370.64,-166 370.64,-370.6" /></g><g
         transform="scale(2.14769)"
         id="g114"><path
           id="path116"
           style="fill:#eea25b;fill-opacity:1;fill-rule:nonzero;stroke:none"
           d="m 10327.6,15928.8 c 0,-205.1 -166.2,-371.3 -371.24,-371.3 -205.01,0 -371.24,166.2 -371.24,371.3 0,205 166.23,371.2 371.24,371.2 205.04,0 371.24,-166.2 371.24,-371.2" /></g><g
         transform="scale(2.14769)"
         id="g118"><path
           id="path120"
           style="fill:#eea25b;fill-opacity:1;fill-rule:nonzero;stroke:none"
           d="m 12069.2,15928.8 c 0,-205.1 -166.2,-371.3 -371.2,-371.3 -205,0 -371.2,166.2 -371.2,371.3 0,205 166.2,371.2 371.2,371.2 205,0 371.2,-166.2 371.2,-371.2" /></g><g
         transform="scale(2.41321)"
         id="g122"><path
           id="path124"
           style="fill:#f9f9d4;fill-opacity:1;fill-rule:nonzero;stroke:none"
           d="m 12345.1,14312.6 h 2543.4 c 781.6,0 1411.5,-689.6 1411.5,-1540.4 v -178.6 c 0,-850.8 -629.9,-1544.9 -1411.5,-1544.9 h -757.1 l 547.9,-1222.16 -1286.2,1222.16 h -1048 c -781.6,0 -1415.2,694.1 -1415.2,1544.9 v 178.6 c 0,850.8 633.6,1540.4 1415.2,1540.4" /></g><g
         transform="scale(2.98508)"
         id="g126"><path
           id="path128"
           style="fill:#f9f9d4;fill-opacity:1;fill-rule:nonzero;stroke:none"
           d="m 15477,13540.8 h -1478.9 c -454.5,0 -820.8,-401.1 -820.8,-895.8 v -103.8 c 0,-494.8 366.3,-898.4 820.8,-898.4 h 440.2 l -318.6,-710.7 747.9,710.7 h 609.4 c 454.5,0 823,403.6 823,898.4 v 103.8 c 0,494.7 -368.5,895.8 -823,895.8" /></g></g></g></svg>